<svg width="24" height="24" viewBox="0 0 24 24" fill="none" xmlns="http://www.w3.org/2000/svg"><path fill-rule="evenodd" clip-rule="evenodd" d="M20.7641 7.27604V17.0915C20.8842 19.7075 17.4004 21.3836 14.9542 21.7975C13.4694 21.9829 11.9642 21.6896 10.6577 20.9605L3.60375 17.2901C3.21927 17.0717 3.00254 16.6449 3.05318 16.2058V6.21607C3.05318 4.86221 4.42199 5.73826 5.45722 6.12942L10.7804 8.34919C12.0138 8.88476 13.8136 9.57891 15.2346 9.4492C17.234 9.21194 19.1385 8.46346 20.7641 7.27604Z" fill="#333333"></path><path fill-rule="evenodd" clip-rule="evenodd" d="M14.5954 7.06121C15.6323 7.30914 17.1305 6.8081 18.4787 5.9025C18.8573 5.6748 18.8278 5.11671 17.8937 4.71266C16.2901 4.02023 13.5604 2.83351 13.5604 2.83351C12.3609 2.31121 11.2881 1.67531 11.2881 3.0109V5.75208C11.2881 5.75208 13.919 6.89939 14.5954 7.06121Z" fill="#333333"></path></svg>